<svg width="1500" height="500" viewBox="0 0 1500 500" fill="none" xmlns="http://www.w3.org/2000/svg">
<rect width="1500" height="500" rx="50" fill="#DFE2EA"/>
<rect width="872" height="53" rx="26.5" transform="matrix(1 0 0 -1 501 463)" fill="#CAE5D3"/>
<rect x="16" y="442" width="758" height="56" rx="28" fill="#9CC9E5"/>
<rect x="545" y="246" width="758" height="56" rx="28" fill="#9CC9E5"/>
<rect x="457" y="113" width="758" height="56" rx="28" fill="#9CC9E5"/>
<rect x="135" y="382" width="758" height="56" rx="28" fill="#9CC9E5"/>
<rect width="872" height="53" rx="26.5" transform="matrix(1 0 0 -1 592 477)" fill="#CAE5D3"/>
<rect width="872" height="53" rx="26.5" transform="matrix(1 0 0 -1 192 129)" fill="#CAE5D3"/>
<rect width="872" height="53" rx="26.5" transform="matrix(1 0 0 -1 225 438)" fill="#CAE5D3"/>
<rect width="872" height="53" rx="26.5" transform="matrix(1 0 0 -1 78 83)" fill="#CAE5D3"/>
<rect x="734" y="326" width="758" height="56" rx="28" fill="#9CC9E5"/>
<rect x="695" y="57" width="758" height="56" rx="28" fill="#9CC9E5"/>
<rect x="342" y="222" width="758" height="56" rx="28" fill="#DFE2EA"/>
<rect x="443" y="407" width="758" height="56" rx="28" fill="#DFE2EA"/>
<rect x="480" y="83" width="758" height="56" rx="28" fill="#DFE2EA"/>
<rect x="395" y="180" width="758" height="56" rx="28" fill="#9CC9E5"/>
<rect x="179" y="236" width="758" height="56" rx="28" fill="#9CC9E5"/>
<rect x="293" y="288" width="758" height="56" rx="28" fill="#9CC9E5"/>
<rect x="225" y="132" width="758" height="56" rx="28" fill="#9CC9E5"/>
<rect x="78" y="173" width="758" height="56" rx="28" fill="#9CC9E5"/>
<rect x="52" y="344" width="758" height="56" rx="28" fill="#9CC9E5"/>
<rect width="872" height="53" rx="26.5" transform="matrix(1 0 0 -1 501 398)" fill="#CAE5D3"/>
<rect width="872" height="53" rx="26.5" transform="matrix(1 0 0 -1 21 267)" fill="#CAE5D3"/>
<ellipse cx="1317" cy="151.5" rx="79" ry="75.5" fill="#DC5F36"/>
<rect width="872" height="53" rx="26.5" transform="matrix(1 0 0 -1 21 267)" fill="#CAE5D3"/>
<rect width="872" height="53" rx="26.5" transform="matrix(1 0 0 -1 431 222)" fill="#CAE5D3"/>
</svg>
