<svg width="1301" height="670" viewBox="0 0 1301 670" fill="none" xmlns="http://www.w3.org/2000/svg">
<rect width="1280" height="670" rx="30" fill="#5FC1C7"/>
<rect y="39" width="635" height="117" rx="50" fill="#E6E500"/>
<rect x="195" y="345" width="635" height="154" rx="50" fill="#E6E500"/>
<rect x="640" y="114" width="635" height="117" rx="50" fill="#E6E500"/>
<rect x="512" y="259" width="557" height="150" rx="50" fill="#1D4763"/>
<rect x="766" y="56" width="436" height="125" rx="50" fill="#1D4763"/>
<rect x="18" y="409" width="436" height="90" rx="45" fill="#1D4763"/>
<rect x="57" y="81" width="436" height="150" rx="50" fill="#1D4763"/>
<rect x="204" y="181" width="436" height="154" rx="50" fill="#1D4763"/>
<rect x="362" y="345" width="635" height="127" rx="50" fill="#5FC1C7"/>
<path d="M60.264 585.488H149.736V599.504H60.264V585.488ZM97.704 570.32H112.392V619.472C112.392 623.184 111.912 626.064 110.952 628.112C109.992 630.224 108.2 631.824 105.576 632.912C103.016 634 100.008 634.704 96.552 635.024C93.096 635.344 89.224 635.472 84.936 635.408C84.68 634 84.2 632.4 83.496 630.608C82.856 628.88 82.12 627.152 81.288 625.424C80.52 623.696 79.752 622.224 78.984 621.008C81.032 621.072 83.144 621.136 85.32 621.2C87.496 621.264 89.448 621.296 91.176 621.296C92.968 621.296 94.216 621.296 94.92 621.296C96.008 621.296 96.744 621.168 97.128 620.912C97.512 620.592 97.704 620.016 97.704 619.184V570.32ZM70.44 549.392H129.672V563.12H70.44V549.392ZM125.16 549.392H128.904L132.072 548.624L142.728 556.688C139.72 559.888 136.296 563.12 132.456 566.384C128.68 569.648 124.744 572.752 120.648 575.696C116.552 578.64 112.488 581.2 108.456 583.376C107.752 582.352 106.856 581.232 105.768 580.016C104.68 578.736 103.56 577.488 102.408 576.272C101.256 575.056 100.232 574.032 99.336 573.2C102.728 571.472 106.12 569.392 109.512 566.96C112.968 564.464 116.072 561.936 118.824 559.376C121.64 556.816 123.752 554.544 125.16 552.56V549.392ZM227.976 573.776C226.248 574.8 224.488 575.792 222.696 576.752C220.968 577.648 219.144 578.576 217.224 579.536C215.304 580.432 213.16 581.488 210.792 582.704C208.424 583.856 205.896 585.168 203.208 586.64C200.52 588.048 197.768 589.648 194.952 591.44C191.24 593.872 188.168 596.4 185.736 599.024C183.368 601.648 182.184 604.56 182.184 607.76C182.184 610.896 183.72 613.232 186.792 614.768C189.864 616.304 194.472 617.072 200.616 617.072C203.816 617.072 207.272 616.912 210.984 616.592C214.76 616.272 218.504 615.824 222.216 615.248C225.928 614.672 229.288 614.064 232.296 613.424L232.104 630.128C229.224 630.64 226.184 631.088 222.984 631.472C219.848 631.856 216.456 632.144 212.808 632.336C209.224 632.528 205.288 632.624 201 632.624C196.072 632.624 191.464 632.24 187.176 631.472C182.952 630.704 179.24 629.424 176.04 627.632C172.904 625.904 170.44 623.568 168.648 620.624C166.856 617.616 165.96 613.904 165.96 609.488C165.96 605.072 166.92 601.136 168.84 597.68C170.824 594.16 173.448 590.96 176.712 588.08C179.976 585.2 183.496 582.512 187.272 580.016C190.216 578.096 193.096 576.336 195.912 574.736C198.792 573.136 201.512 571.664 204.072 570.32C206.632 568.912 208.84 567.664 210.696 566.576C212.744 565.424 214.568 564.336 216.168 563.312C217.768 562.288 219.272 561.2 220.68 560.048L227.976 573.776ZM183.048 549.968C184.648 554.32 186.344 558.48 188.136 562.448C189.928 566.352 191.72 570 193.512 573.392C195.304 576.72 196.936 579.728 198.408 582.416L185.064 590.192C183.272 587.12 181.416 583.728 179.496 580.016C177.64 576.304 175.784 572.432 173.928 568.4C172.072 564.304 170.248 560.144 168.456 555.92L183.048 549.968ZM228.84 548.24C229.672 549.392 230.536 550.8 231.432 552.464C232.392 554.064 233.288 555.664 234.12 557.264C235.016 558.864 235.752 560.24 236.328 561.392L227.208 565.232C226.184 563.248 225 561.008 223.656 558.512C222.376 555.952 221.096 553.744 219.816 551.888L228.84 548.24ZM240.648 543.632C241.48 544.848 242.376 546.288 243.336 547.952C244.296 549.552 245.224 551.152 246.12 552.752C247.016 554.288 247.72 555.6 248.232 556.688L239.208 560.528C238.248 558.544 237.064 556.304 235.656 553.808C234.248 551.248 232.904 549.072 231.624 547.28L240.648 543.632ZM295.464 548.24C295.016 550.224 294.632 551.984 294.312 553.52C294.056 555.056 293.8 556.496 293.544 557.84C293.352 558.992 293.064 560.784 292.68 563.216C292.36 565.584 291.976 568.368 291.528 571.568C291.08 574.704 290.632 578 290.184 581.456C289.8 584.912 289.416 588.304 289.032 591.632C288.648 594.896 288.328 597.872 288.072 600.56C287.88 603.248 287.784 605.36 287.784 606.896C287.784 610.48 288.904 613.168 291.144 614.96C293.384 616.688 296.648 617.552 300.936 617.552C305.224 617.552 308.744 616.976 311.496 615.824C314.312 614.608 316.424 613.04 317.832 611.12C319.24 609.136 319.944 607.024 319.944 604.784C319.944 601.52 319.08 598.448 317.352 595.568C315.688 592.624 313.384 589.68 310.44 586.736L326.76 583.28C329.896 587.504 332.168 591.44 333.576 595.088C335.048 598.736 335.784 602.608 335.784 606.704C335.784 611.568 334.376 615.984 331.56 619.952C328.744 623.856 324.712 626.96 319.464 629.264C314.216 631.568 307.88 632.72 300.456 632.72C295.016 632.72 290.248 631.888 286.152 630.224C282.12 628.624 278.984 626.128 276.744 622.736C274.504 619.28 273.384 614.832 273.384 609.392C273.384 607.472 273.544 604.88 273.864 601.616C274.184 598.288 274.568 594.64 275.016 590.672C275.528 586.64 276.04 582.544 276.552 578.384C277.128 574.224 277.608 570.288 277.992 566.576C278.44 562.8 278.76 559.568 278.952 556.88C279.144 554.32 279.24 552.4 279.24 551.12C279.304 549.84 279.272 548.592 279.144 547.376L295.464 548.24ZM259.272 559.664C262.152 560.624 265.32 561.424 268.776 562.064C272.296 562.64 275.912 563.088 279.624 563.408C283.336 563.664 286.92 563.792 290.376 563.792C294.152 563.792 297.672 563.664 300.936 563.408C304.2 563.152 306.92 562.832 309.096 562.448L308.616 576.272C305.864 576.528 303.08 576.752 300.264 576.944C297.448 577.136 293.992 577.232 289.896 577.232C286.44 577.232 282.888 577.072 279.24 576.752C275.592 576.368 272.008 575.856 268.488 575.216C264.968 574.576 261.672 573.84 258.6 573.008L259.272 559.664ZM257.352 583.472C261 584.688 264.648 585.616 268.296 586.256C271.944 586.896 275.528 587.344 279.048 587.6C282.632 587.792 286.12 587.888 289.512 587.888C292.264 587.888 295.336 587.792 298.728 587.6C302.184 587.344 305.384 587.056 308.328 586.736L307.944 600.464C305.576 600.72 303.048 600.944 300.36 601.136C297.672 601.264 294.888 601.328 292.008 601.328C284.968 601.328 278.376 600.976 272.232 600.272C266.152 599.568 260.936 598.64 256.584 597.488L257.352 583.472ZM403.272 560.048C402.568 564.912 401.704 570.096 400.68 575.6C399.656 581.104 398.216 586.864 396.36 592.88C394.504 599.28 392.296 604.88 389.736 609.68C387.176 614.48 384.296 618.224 381.096 620.912C377.96 623.6 374.504 624.944 370.728 624.944C366.76 624.944 363.176 623.664 359.976 621.104C356.84 618.48 354.344 614.96 352.488 610.544C350.696 606.064 349.8 601.104 349.8 595.664C349.8 589.968 350.952 584.592 353.256 579.536C355.56 574.416 358.76 569.904 362.856 566C366.952 562.096 371.752 559.024 377.256 556.784C382.76 554.544 388.712 553.424 395.112 553.424C401.256 553.424 406.76 554.416 411.624 556.4C416.552 558.32 420.744 561.04 424.2 564.56C427.72 568.08 430.408 572.208 432.264 576.944C434.12 581.616 435.048 586.672 435.048 592.112C435.048 598.832 433.704 604.912 431.016 610.352C428.328 615.728 424.264 620.24 418.824 623.888C413.384 627.472 406.504 629.968 398.184 631.376L389.352 617.552C391.4 617.296 393.128 617.04 394.536 616.784C395.944 616.464 397.352 616.144 398.76 615.824C401.832 615.056 404.616 613.968 407.112 612.56C409.608 611.152 411.752 609.424 413.544 607.376C415.336 605.328 416.712 602.992 417.672 600.368C418.632 597.68 419.112 594.768 419.112 591.632C419.112 587.92 418.568 584.56 417.48 581.552C416.456 578.544 414.888 575.952 412.776 573.776C410.728 571.6 408.2 569.936 405.192 568.784C402.184 567.632 398.728 567.056 394.824 567.056C389.832 567.056 385.448 567.952 381.672 569.744C377.96 571.472 374.856 573.744 372.36 576.56C369.864 579.312 367.976 582.256 366.696 585.392C365.48 588.528 364.872 591.44 364.872 594.128C364.872 596.88 365.16 599.216 365.736 601.136C366.312 602.992 367.048 604.4 367.944 605.36C368.904 606.32 369.96 606.8 371.112 606.8C372.392 606.8 373.576 606.16 374.664 604.88C375.816 603.6 376.904 601.712 377.928 599.216C379.016 596.656 380.136 593.52 381.288 589.808C382.76 585.264 384.008 580.368 385.032 575.12C386.056 569.808 386.792 564.624 387.24 559.568L403.272 560.048ZM459.048 580.112H480.264V592.784H459.048V580.112ZM474.984 580.112H488.52C488.52 580.112 488.52 580.432 488.52 581.072C488.52 581.648 488.488 582.32 488.424 583.088C488.424 583.856 488.424 584.496 488.424 585.008C488.36 591.536 488.232 596.944 488.04 601.232C487.848 605.52 487.528 608.88 487.08 611.312C486.696 613.744 486.12 615.472 485.352 616.496C484.328 617.904 483.24 618.896 482.088 619.472C480.936 620.048 479.624 620.496 478.152 620.816C476.872 621.072 475.272 621.232 473.352 621.296C471.432 621.36 469.352 621.392 467.112 621.392C467.048 619.344 466.664 617.104 465.96 614.672C465.256 612.176 464.392 610.064 463.368 608.336C464.84 608.464 466.216 608.56 467.496 608.624C468.776 608.688 469.8 608.72 470.568 608.72C471.208 608.72 471.752 608.624 472.2 608.432C472.648 608.24 473.064 607.92 473.448 607.472C473.832 606.96 474.12 605.84 474.312 604.112C474.504 602.32 474.632 599.664 474.696 596.144C474.824 592.624 474.92 587.952 474.984 582.128V580.112ZM504.84 550.64L513.288 542.288C514.952 543.12 516.712 544.144 518.568 545.36C520.488 546.512 522.312 547.696 524.04 548.912C525.768 550.064 527.176 551.184 528.264 552.272L519.24 561.584C518.28 560.496 516.968 559.312 515.304 558.032C513.704 556.688 511.976 555.376 510.12 554.096C508.264 552.816 506.504 551.664 504.84 550.64ZM514.824 574.64L528.936 578C524.968 590.48 519.528 601.616 512.616 611.408C505.704 621.136 497.576 628.944 488.232 634.832C487.592 633.808 486.664 632.56 485.448 631.088C484.232 629.68 482.952 628.24 481.608 626.768C480.328 625.36 479.176 624.208 478.152 623.312C487.112 618.448 494.664 611.824 500.808 603.44C507.016 595.056 511.688 585.456 514.824 574.64ZM459.72 557.264H533.64V570.992H459.72V557.264ZM450.312 557.264H465V586.16C465 589.872 464.872 593.968 464.616 598.448C464.36 602.864 463.848 607.376 463.08 611.984C462.376 616.592 461.32 621.04 459.912 625.328C458.568 629.552 456.808 633.296 454.632 636.56C453.864 635.6 452.712 634.48 451.176 633.2C449.704 631.92 448.2 630.672 446.664 629.456C445.128 628.304 443.816 627.472 442.728 626.96C445.096 623.184 446.792 618.928 447.816 614.192C448.904 609.392 449.576 604.56 449.832 599.696C450.152 594.768 450.312 590.224 450.312 586.064V557.264ZM488.808 544.016H503.496C503.304 551.312 503.464 558.608 503.976 565.904C504.488 573.136 505.256 580.016 506.28 586.544C507.304 593.072 508.488 598.864 509.832 603.92C511.24 608.976 512.744 612.976 514.344 615.92C516.008 618.8 517.64 620.24 519.24 620.24C520.2 620.24 520.968 618.96 521.544 616.4C522.12 613.776 522.536 609.552 522.792 603.728C524.392 605.328 526.28 606.896 528.456 608.432C530.696 609.904 532.744 610.992 534.6 611.696C533.896 617.904 532.872 622.672 531.528 626C530.248 629.264 528.52 631.472 526.344 632.624C524.168 633.84 521.416 634.448 518.088 634.448C514.504 634.448 511.272 633.2 508.392 630.704C505.576 628.272 503.08 624.88 500.904 620.528C498.728 616.112 496.872 610.992 495.336 605.168C493.864 599.344 492.648 593.072 491.688 586.352C490.728 579.568 490.024 572.592 489.576 565.424C489.128 558.256 488.872 551.12 488.808 544.016ZM541.128 588.944H628.872V601.136H541.128V588.944ZM564.456 561.488H615.912V572.144H564.456V561.488ZM564.456 575.216H615.912V585.872H564.456V575.216ZM545.16 621.872C549 621.488 553.352 621.008 558.216 620.432C563.144 619.792 568.264 619.12 573.576 618.416C578.952 617.712 584.232 617.008 589.416 616.304L590.088 628.592C585.288 629.296 580.392 630 575.4 630.704C570.472 631.472 565.672 632.176 561 632.816C556.392 633.456 552.136 634.064 548.232 634.64L545.16 621.872ZM591.144 592.4C594.088 600.4 598.76 606.96 605.16 612.08C611.56 617.2 620.136 620.72 630.888 622.64C629.864 623.6 628.776 624.816 627.624 626.288C626.536 627.824 625.48 629.36 624.456 630.896C623.496 632.496 622.696 633.936 622.056 635.216C614.12 633.36 607.368 630.672 601.8 627.152C596.296 623.632 591.656 619.248 587.88 614C584.104 608.688 580.904 602.48 578.28 595.376L591.144 592.4ZM615.432 598.736L626.664 606.608C624.36 608.272 621.96 609.904 619.464 611.504C616.968 613.04 614.472 614.48 611.976 615.824C609.544 617.168 607.272 618.352 605.16 619.376L595.944 612.176C598.056 611.088 600.296 609.776 602.664 608.24C605.032 606.704 607.336 605.104 609.576 603.44C611.816 601.776 613.768 600.208 615.432 598.736ZM556.776 546.896H618.312V558.224H571.08V594.032H556.776V546.896ZM556.68 592.496H571.08V623.888L556.68 625.328V592.496ZM681.096 548.336C680.776 550.064 680.232 552.336 679.464 555.152C678.76 557.968 677.704 561.168 676.296 564.752C675.4 566.8 674.408 568.944 673.32 571.184C672.232 573.424 671.144 575.376 670.056 577.04C670.696 576.848 671.592 576.688 672.744 576.56C673.896 576.368 675.08 576.24 676.296 576.176C677.576 576.112 678.664 576.08 679.56 576.08C683.72 576.08 687.176 577.296 689.928 579.728C692.68 582.16 694.056 585.776 694.056 590.576C694.056 591.92 694.056 593.52 694.056 595.376C694.12 597.168 694.184 599.056 694.248 601.04C694.312 603.024 694.376 604.976 694.44 606.896C694.504 608.816 694.536 610.544 694.536 612.08H680.712C680.84 611.056 680.936 609.872 681 608.528C681.064 607.184 681.096 605.744 681.096 604.208C681.16 602.672 681.192 601.168 681.192 599.696C681.256 598.224 681.288 596.816 681.288 595.472C681.288 592.272 680.488 590.128 678.888 589.04C677.352 587.888 675.72 587.312 673.992 587.312C671.56 587.312 669 587.984 666.312 589.328C663.688 590.608 661.544 592.08 659.88 593.744C658.472 595.216 657.032 596.848 655.56 598.64C654.152 600.368 652.616 602.352 650.952 604.592L638.568 595.28C642.408 591.824 645.832 588.4 648.84 585.008C651.912 581.616 654.568 578.128 656.808 574.544C659.048 570.896 660.904 567.088 662.376 563.12C663.272 560.56 664.008 557.904 664.584 555.152C665.224 552.336 665.608 549.648 665.736 547.088L681.096 548.336ZM643.08 556.4C645.512 556.784 648.36 557.072 651.624 557.264C654.888 557.456 657.8 557.552 660.36 557.552C664.52 557.552 669.128 557.456 674.184 557.264C679.304 557.072 684.488 556.752 689.736 556.304C695.048 555.856 700.072 555.216 704.808 554.384L704.712 567.824C701.32 568.272 697.608 568.688 693.576 569.072C689.544 569.392 685.448 569.68 681.288 569.936C677.128 570.128 673.16 570.288 669.384 570.416C665.672 570.48 662.408 570.512 659.592 570.512C658.312 570.512 656.712 570.512 654.792 570.512C652.872 570.448 650.888 570.352 648.84 570.224C646.792 570.096 644.872 569.968 643.08 569.84V556.4ZM720.648 585.968C719.56 586.288 718.216 586.736 716.616 587.312C715.016 587.824 713.416 588.368 711.816 588.944C710.216 589.52 708.808 590.064 707.592 590.576C704.648 591.728 701.128 593.136 697.032 594.8C693 596.464 688.776 598.416 684.36 600.656C681.608 602.064 679.368 603.44 677.64 604.784C675.912 606.064 674.632 607.376 673.8 608.72C672.968 610 672.552 611.408 672.552 612.944C672.552 613.968 672.744 614.832 673.128 615.536C673.576 616.24 674.248 616.816 675.144 617.264C676.104 617.712 677.352 618.064 678.888 618.32C680.424 618.512 682.312 618.608 684.552 618.608C688.84 618.608 693.512 618.352 698.568 617.84C703.624 617.264 708.264 616.528 712.488 615.632L712.008 630.608C710.088 630.864 707.528 631.12 704.328 631.376C701.192 631.696 697.864 631.92 694.344 632.048C690.824 632.24 687.464 632.336 684.264 632.336C679.016 632.336 674.344 631.792 670.248 630.704C666.216 629.68 663.016 627.952 660.648 625.52C658.344 623.024 657.192 619.664 657.192 615.44C657.192 611.856 657.992 608.656 659.592 605.84C661.256 602.96 663.4 600.4 666.024 598.16C668.648 595.856 671.496 593.808 674.568 592.016C677.64 590.16 680.616 588.528 683.496 587.12C686.44 585.584 689 584.336 691.176 583.376C693.352 582.352 695.368 581.456 697.224 580.688C699.08 579.856 700.904 579.024 702.696 578.192C704.808 577.296 706.856 576.4 708.84 575.504C710.888 574.544 712.936 573.552 714.984 572.528L720.648 585.968ZM793.992 550.352L800.808 542.768C803.048 543.472 805.416 544.432 807.912 545.648C810.472 546.8 812.52 547.952 814.056 549.104L806.856 557.36C805.512 556.272 803.592 555.056 801.096 553.712C798.6 552.304 796.232 551.184 793.992 550.352ZM745.512 552.368H819.048V563.312H745.512V552.368ZM753.192 566.672H780.936V575.312H753.192V566.672ZM752.808 578.768H763.848V596.528H752.808V578.768ZM802.152 564.464L815.016 567.536C812.2 575.28 808.36 582.288 803.496 588.56C798.696 594.768 793.256 599.856 787.176 603.824C786.536 602.928 785.64 601.872 784.488 600.656C783.336 599.44 782.152 598.224 780.936 597.008C779.72 595.792 778.632 594.8 777.672 594.032C783.368 590.96 788.328 586.864 792.552 581.744C796.84 576.624 800.04 570.864 802.152 564.464ZM779.592 543.92H792.648C792.776 550.128 793.32 556.144 794.28 561.968C795.304 567.728 796.584 572.88 798.12 577.424C799.656 581.968 801.384 585.584 803.304 588.272C805.224 590.896 807.144 592.208 809.064 592.208C810.088 592.208 810.824 591.344 811.272 589.616C811.72 587.888 812.072 585.04 812.328 581.072C813.736 582.288 815.4 583.472 817.32 584.624C819.304 585.776 821.096 586.608 822.696 587.12C822.12 591.92 821.256 595.6 820.104 598.16C818.952 600.656 817.416 602.384 815.496 603.344C813.576 604.24 811.176 604.688 808.296 604.688C804.776 604.688 801.544 603.632 798.6 601.52C795.72 599.344 793.128 596.336 790.824 592.496C788.584 588.656 786.664 584.176 785.064 579.056C783.464 573.936 782.216 568.4 781.32 562.448C780.424 556.432 779.848 550.256 779.592 543.92ZM752.808 578.768H780.84V599.984H752.808V591.344H769.608V587.408H752.808V578.768ZM755.976 607.664H769.8V618.512C769.8 619.92 770.088 620.784 770.664 621.104C771.24 621.424 772.584 621.584 774.696 621.584C775.144 621.584 775.816 621.584 776.712 621.584C777.608 621.584 778.6 621.584 779.688 621.584C780.776 621.584 781.8 621.584 782.76 621.584C783.784 621.584 784.584 621.584 785.16 621.584C786.312 621.584 787.144 621.424 787.656 621.104C788.232 620.72 788.648 619.984 788.904 618.896C789.224 617.744 789.448 616.048 789.576 613.808C790.472 614.448 791.656 615.088 793.128 615.728C794.6 616.368 796.104 616.944 797.64 617.456C799.24 617.968 800.648 618.352 801.864 618.608C801.352 622.64 800.52 625.744 799.368 627.92C798.28 630.16 796.712 631.696 794.664 632.528C792.616 633.424 789.896 633.872 786.504 633.872C785.928 633.872 785.16 633.872 784.2 633.872C783.304 633.872 782.312 633.872 781.224 633.872C780.2 633.872 779.144 633.872 778.056 633.872C776.968 633.872 775.976 633.872 775.08 633.872C774.184 633.872 773.448 633.872 772.872 633.872C768.264 633.872 764.744 633.392 762.312 632.432C759.88 631.472 758.216 629.872 757.32 627.632C756.424 625.456 755.976 622.48 755.976 618.704V607.664ZM765.672 605.36L774.696 597.968C776.36 598.928 778.056 600.048 779.784 601.328C781.576 602.608 783.24 603.92 784.776 605.264C786.376 606.608 787.656 607.888 788.616 609.104L778.92 617.264C778.088 616.048 776.936 614.736 775.464 613.328C773.992 611.92 772.392 610.512 770.664 609.104C769 607.696 767.336 606.448 765.672 605.36ZM796.392 611.216L808.104 605.456C810.088 607.44 812.04 609.616 813.96 611.984C815.88 614.352 817.608 616.752 819.144 619.184C820.744 621.552 821.928 623.792 822.696 625.904L809.928 632.24C809.288 630.256 808.264 628.048 806.856 625.616C805.512 623.12 803.912 620.624 802.056 618.128C800.264 615.632 798.376 613.328 796.392 611.216ZM742.728 607.184L755.208 611.6C754.056 615.696 752.52 619.664 750.6 623.504C748.68 627.28 746.12 630.512 742.92 633.2L731.304 625.328C734.056 623.152 736.392 620.496 738.312 617.36C740.232 614.16 741.704 610.768 742.728 607.184ZM738.984 552.368H751.752V567.248C751.752 570.32 751.592 573.648 751.272 577.232C750.952 580.752 750.376 584.368 749.544 588.08C748.776 591.728 747.656 595.28 746.184 598.736C744.712 602.128 742.824 605.2 740.52 607.952C739.88 607.12 738.92 606.16 737.64 605.072C736.36 603.92 735.048 602.832 733.704 601.808C732.36 600.72 731.24 599.952 730.344 599.504C733.032 596.368 734.984 592.912 736.2 589.136C737.416 585.296 738.184 581.456 738.504 577.616C738.824 573.776 738.984 570.256 738.984 567.056V552.368ZM884.424 557.264C885.384 558.672 886.408 560.304 887.496 562.16C888.648 564.016 889.736 565.872 890.76 567.728C891.848 569.584 892.744 571.248 893.448 572.72L883.176 577.136C882.152 574.896 881.192 572.944 880.296 571.28C879.464 569.552 878.6 567.92 877.704 566.384C876.808 564.784 875.72 563.12 874.44 561.392L884.424 557.264ZM897.576 551.792C898.6 553.136 899.688 554.736 900.84 556.592C901.992 558.384 903.112 560.176 904.2 561.968C905.288 563.76 906.184 565.36 906.888 566.768L896.904 571.568C895.816 569.328 894.792 567.408 893.832 565.808C892.936 564.144 892.008 562.576 891.048 561.104C890.088 559.568 888.968 557.968 887.688 556.304L897.576 551.792ZM860.712 549.584C860.392 551.888 860.104 554.384 859.848 557.072C859.592 559.696 859.4 562.064 859.272 564.176C859.144 566.672 859.016 569.744 858.888 573.392C858.76 576.976 858.632 580.752 858.504 584.72C858.376 588.624 858.248 592.432 858.12 596.144C858.056 599.792 858.024 602.928 858.024 605.552C858.024 608.624 858.568 611.056 859.656 612.848C860.744 614.576 862.184 615.824 863.976 616.592C865.768 617.296 867.752 617.648 869.928 617.648C873.64 617.648 877.064 617.136 880.2 616.112C883.336 615.088 886.216 613.712 888.84 611.984C891.464 610.192 893.864 608.112 896.04 605.744C898.216 603.376 900.168 600.848 901.896 598.16L912.456 611.12C910.92 613.424 908.872 615.888 906.312 618.512C903.816 621.072 900.776 623.504 897.192 625.808C893.672 628.112 889.608 629.968 885 631.376C880.456 632.848 875.4 633.584 869.832 633.584C864.264 633.584 859.432 632.72 855.336 630.992C851.24 629.264 848.072 626.608 845.832 623.024C843.656 619.376 842.568 614.768 842.568 609.2C842.568 606.768 842.6 603.92 842.664 600.656C842.728 597.328 842.792 593.872 842.856 590.288C842.984 586.64 843.08 583.088 843.144 579.632C843.208 576.176 843.272 573.104 843.336 570.416C843.4 567.664 843.432 565.584 843.432 564.176C843.432 561.552 843.304 558.992 843.048 556.496C842.856 553.936 842.504 551.568 841.992 549.392L860.712 549.584ZM941.16 551.504C942.632 551.696 944.232 551.856 945.96 551.984C947.688 552.048 949.352 552.08 950.952 552.08C951.976 552.08 953.48 552.08 955.464 552.08C957.448 552.016 959.656 551.984 962.088 551.984C964.584 551.92 967.048 551.856 969.48 551.792C971.976 551.728 974.216 551.664 976.2 551.6C978.248 551.472 979.848 551.376 981 551.312C983.304 551.12 985.128 550.928 986.472 550.736C987.88 550.544 988.904 550.352 989.544 550.16L996.744 560.432C995.528 561.2 994.28 561.968 993 562.736C991.784 563.44 990.568 564.24 989.352 565.136C988.008 566.032 986.504 567.12 984.84 568.4C983.176 569.616 981.48 570.928 979.752 572.336C978.024 573.68 976.328 574.992 974.664 576.272C973.064 577.552 971.592 578.704 970.248 579.728C971.528 579.472 972.68 579.312 973.704 579.248C974.728 579.184 975.816 579.152 976.968 579.152C982.472 579.152 987.432 580.24 991.848 582.416C996.328 584.592 999.88 587.568 1002.5 591.344C1005.13 595.056 1006.44 599.344 1006.44 604.208C1006.44 609.2 1005.19 613.84 1002.7 618.128C1000.2 622.416 996.328 625.84 991.08 628.4C985.832 631.024 979.048 632.336 970.728 632.336C966.248 632.336 962.12 631.664 958.344 630.32C954.568 628.976 951.56 627.056 949.32 624.56C947.08 622 945.96 618.96 945.96 615.44C945.96 612.624 946.728 609.968 948.264 607.472C949.864 604.976 952.072 602.96 954.888 601.424C957.704 599.888 960.936 599.12 964.584 599.12C969.064 599.12 972.872 600.016 976.008 601.808C979.144 603.536 981.544 605.904 983.208 608.912C984.936 611.92 985.8 615.248 985.8 618.896L972.168 620.528C972.168 617.392 971.464 614.896 970.056 613.04C968.712 611.12 966.92 610.16 964.68 610.16C963.08 610.16 961.832 610.576 960.936 611.408C960.104 612.176 959.688 613.04 959.688 614C959.688 615.472 960.424 616.688 961.896 617.648C963.368 618.608 965.32 619.088 967.752 619.088C973.128 619.088 977.544 618.48 981 617.264C984.456 616.048 986.984 614.32 988.584 612.08C990.248 609.776 991.08 607.088 991.08 604.016C991.08 601.264 990.216 598.896 988.488 596.912C986.824 594.864 984.552 593.296 981.672 592.208C978.792 591.12 975.592 590.576 972.072 590.576C968.552 590.576 965.256 591.088 962.184 592.112C959.176 593.072 956.328 594.448 953.64 596.24C950.952 597.968 948.36 600.048 945.864 602.48C943.432 604.848 941.064 607.44 938.76 610.256L928.2 599.312C929.736 598.096 931.528 596.656 933.576 594.992C935.624 593.328 937.736 591.6 939.912 589.808C942.088 587.952 944.168 586.192 946.152 584.528C948.136 582.864 949.832 581.456 951.24 580.304C952.584 579.216 954.088 578 955.752 576.656C957.48 575.312 959.208 573.936 960.936 572.528C962.728 571.056 964.424 569.68 966.024 568.4C967.624 567.056 969 565.872 970.152 564.848C969.192 564.848 968.04 564.88 966.696 564.944C965.416 565.008 964.04 565.072 962.568 565.136C961.096 565.136 959.592 565.168 958.056 565.232C956.584 565.296 955.176 565.392 953.832 565.52C952.488 565.584 951.304 565.648 950.28 565.712C948.872 565.776 947.368 565.904 945.768 566.096C944.168 566.224 942.792 566.384 941.64 566.576L941.16 551.504ZM1098.02 570.704C1096.36 571.728 1094.63 572.72 1092.84 573.68C1091.11 574.64 1089.26 575.6 1087.27 576.56C1085.86 577.264 1084.14 578.096 1082.09 579.056C1080.1 580.016 1077.93 581.104 1075.56 582.32C1073.26 583.472 1070.92 584.688 1068.55 585.968C1066.18 587.248 1063.94 588.56 1061.83 589.904C1058.12 592.336 1055.05 594.864 1052.62 597.488C1050.25 600.112 1049.06 603.024 1049.06 606.224C1049.06 609.36 1050.6 611.696 1053.67 613.232C1056.74 614.768 1061.35 615.536 1067.5 615.536C1070.7 615.536 1074.15 615.376 1077.86 615.056C1081.64 614.736 1085.38 614.288 1089.1 613.712C1092.81 613.136 1096.17 612.496 1099.18 611.792L1098.98 628.592C1096.1 629.04 1093.06 629.456 1089.86 629.84C1086.73 630.224 1083.34 630.512 1079.69 630.704C1076.1 630.896 1072.17 630.992 1067.88 630.992C1062.95 630.992 1058.34 630.608 1054.06 629.84C1049.83 629.136 1046.12 627.888 1042.92 626.096C1039.78 624.368 1037.32 622.032 1035.53 619.088C1033.74 616.08 1032.84 612.368 1032.84 607.952C1032.84 603.536 1033.83 599.6 1035.82 596.144C1037.8 592.624 1040.42 589.424 1043.69 586.544C1046.95 583.664 1050.47 580.976 1054.25 578.48C1056.42 577.008 1058.73 575.6 1061.16 574.256C1063.59 572.848 1065.96 571.504 1068.26 570.224C1070.63 568.944 1072.81 567.76 1074.79 566.672C1076.84 565.584 1078.57 564.624 1079.98 563.792C1082.02 562.576 1083.85 561.488 1085.45 560.528C1087.05 559.504 1088.55 558.416 1089.96 557.264L1098.02 570.704ZM1049.93 548.432C1051.53 552.784 1053.22 556.912 1055.02 560.816C1056.81 564.72 1058.6 568.368 1060.39 571.76C1062.18 575.088 1063.82 578.128 1065.29 580.88L1051.94 588.656C1050.15 585.584 1048.3 582.192 1046.38 578.48C1044.52 574.768 1042.66 570.896 1040.81 566.864C1038.95 562.768 1037.13 558.608 1035.34 554.384L1049.93 548.432ZM1127.98 555.344C1135.21 556.176 1141.7 556.688 1147.46 556.88C1153.29 557.008 1158.79 556.912 1163.98 556.592C1168.58 556.272 1172.94 555.728 1177.03 554.96C1181.19 554.192 1185.38 553.168 1189.61 551.888L1191.43 565.136C1187.78 566.16 1183.88 567.024 1179.72 567.728C1175.56 568.432 1171.3 568.944 1166.95 569.264C1161.96 569.584 1156.23 569.744 1149.77 569.744C1143.3 569.68 1136.3 569.296 1128.74 568.592L1127.98 555.344ZM1126.34 575.696C1132.3 576.208 1137.93 576.56 1143.24 576.752C1148.55 576.944 1153.51 576.976 1158.12 576.848C1162.79 576.656 1167.08 576.4 1170.98 576.08C1176.49 575.632 1181.06 574.992 1184.71 574.16C1188.42 573.328 1191.75 572.496 1194.7 571.664L1197 585.392C1193.99 586.096 1190.76 586.768 1187.3 587.408C1183.85 587.984 1180.2 588.496 1176.36 588.944C1172.26 589.328 1167.5 589.616 1162.06 589.808C1156.68 590 1150.98 590.064 1144.97 590C1139.02 589.872 1133.06 589.648 1127.11 589.328L1126.34 575.696ZM1157.93 560.24C1157.42 558.256 1156.84 556.304 1156.2 554.384C1155.56 552.4 1154.86 550.32 1154.09 548.144L1169.64 546.512C1170.09 549.776 1170.6 552.848 1171.18 555.728C1171.75 558.608 1172.39 561.36 1173.1 563.984C1173.86 566.608 1174.66 569.232 1175.5 571.856C1176.2 573.904 1177.16 576.336 1178.38 579.152C1179.66 581.904 1181.03 584.656 1182.5 587.408C1183.98 590.16 1185.38 592.592 1186.73 594.704C1187.43 595.728 1188.14 596.688 1188.84 597.584C1189.61 598.416 1190.47 599.28 1191.43 600.176L1184.62 610.64C1182.82 610.32 1180.52 609.968 1177.7 609.584C1174.89 609.2 1171.98 608.848 1168.97 608.528C1165.96 608.144 1163.24 607.824 1160.81 607.568L1161.96 596.528C1163.62 596.656 1165.48 596.816 1167.53 597.008C1169.64 597.136 1171.37 597.264 1172.71 597.392C1170.22 593.04 1168.1 588.912 1166.38 585.008C1164.71 581.104 1163.34 577.52 1162.25 574.256C1161.48 571.952 1160.84 570.064 1160.33 568.592C1159.88 567.056 1159.46 565.68 1159.08 564.464C1158.76 563.184 1158.38 561.776 1157.93 560.24ZM1147.27 598.928C1146.12 600.464 1145.1 602.096 1144.2 603.824C1143.3 605.488 1142.86 607.344 1142.86 609.392C1142.86 612.72 1144.42 615.056 1147.56 616.4C1150.7 617.68 1155.11 618.32 1160.81 618.32C1165.35 618.32 1169.77 618.128 1174.06 617.744C1178.34 617.36 1182.18 616.848 1185.58 616.208L1184.71 630.992C1181.38 631.504 1177.51 631.92 1173.1 632.24C1168.74 632.624 1164.65 632.816 1160.81 632.816C1154.34 632.816 1148.71 632.112 1143.91 630.704C1139.11 629.36 1135.37 627.216 1132.68 624.272C1129.99 621.328 1128.58 617.456 1128.46 612.656C1128.39 609.328 1128.81 606.352 1129.7 603.728C1130.66 601.104 1131.72 598.608 1132.87 596.24L1147.27 598.928ZM1222.75 602C1225.75 602 1228.44 602.736 1230.81 604.208C1233.24 605.616 1235.16 607.536 1236.57 609.968C1238.04 612.4 1238.78 615.088 1238.78 618.032C1238.78 620.976 1238.04 623.664 1236.57 626.096C1235.16 628.528 1233.24 630.448 1230.81 631.856C1228.44 633.328 1225.75 634.064 1222.75 634.064C1219.8 634.064 1217.11 633.328 1214.68 631.856C1212.25 630.448 1210.3 628.528 1208.83 626.096C1207.42 623.664 1206.71 620.976 1206.71 618.032C1206.71 615.088 1207.42 612.4 1208.83 609.968C1210.3 607.536 1212.25 605.616 1214.68 604.208C1217.11 602.736 1219.8 602 1222.75 602ZM1222.75 626C1224.99 626 1226.87 625.232 1228.41 623.696C1229.95 622.096 1230.71 620.208 1230.71 618.032C1230.71 616.56 1230.36 615.216 1229.66 614C1228.95 612.784 1227.99 611.824 1226.78 611.12C1225.56 610.416 1224.22 610.064 1222.75 610.064C1221.34 610.064 1220.03 610.416 1218.81 611.12C1217.59 611.824 1216.6 612.784 1215.83 614C1215.13 615.216 1214.78 616.56 1214.78 618.032C1214.78 619.504 1215.13 620.848 1215.83 622.064C1216.6 623.28 1217.59 624.24 1218.81 624.944C1220.03 625.648 1221.34 626 1222.75 626Z" fill="#1D4763"/>
</svg>
