<svg width="1280" height="670" viewBox="0 0 1280 670" fill="none" xmlns="http://www.w3.org/2000/svg">
<g clip-path="url(#clip0_8_24)">
<path d="M1280 0H0V670H1280V0Z" fill="#74A64C"/>
<path d="M861.488 565.52C860.784 566.288 860.144 566.992 859.568 567.632C859.056 568.272 858.608 568.912 858.224 569.552C856.304 572.624 854.032 575.952 851.408 579.536C848.784 583.12 845.872 586.736 842.672 590.384C839.472 594.032 836.08 597.552 832.496 600.944C828.976 604.336 825.328 607.408 821.552 610.16L812.048 601.232C815.248 599.056 818.256 596.656 821.072 594.032C823.952 591.344 826.608 588.624 829.04 585.872C831.536 583.12 833.744 580.432 835.664 577.808C837.584 575.184 839.184 572.784 840.464 570.608C839.184 570.608 837.488 570.608 835.376 570.608C833.264 570.608 830.8 570.608 827.984 570.608C825.232 570.608 822.32 570.608 819.248 570.608C816.176 570.608 813.104 570.608 810.032 570.608C807.024 570.608 804.144 570.608 801.392 570.608C798.704 570.608 796.336 570.608 794.288 570.608C792.304 570.608 790.768 570.608 789.68 570.608C788.4 570.608 787.024 570.64 785.552 570.704C784.144 570.768 782.8 570.864 781.52 570.992C780.24 571.12 779.28 571.216 778.64 571.28V557.84C779.472 557.904 780.528 558.032 781.808 558.224C783.152 558.416 784.528 558.544 785.936 558.608C787.344 558.672 788.592 558.704 789.68 558.704C790.512 558.704 791.92 558.704 793.904 558.704C795.952 558.704 798.352 558.704 801.104 558.704C803.856 558.704 806.8 558.704 809.936 558.704C813.136 558.704 816.336 558.704 819.536 558.704C822.8 558.704 825.936 558.704 828.944 558.704C831.952 558.704 834.64 558.704 837.008 558.704C839.44 558.704 841.424 558.704 842.96 558.704C846.736 558.704 849.712 558.352 851.888 557.648L861.488 565.52ZM810.8 611.504C809.392 610.096 807.76 608.56 805.904 606.896C804.112 605.168 802.224 603.44 800.24 601.712C798.32 599.984 796.432 598.384 794.576 596.912C792.784 595.376 791.152 594.096 789.68 593.072L799.856 584.912C801.136 585.872 802.64 587.056 804.368 588.464C806.16 589.872 808.048 591.408 810.032 593.072C812.016 594.736 814.032 596.464 816.08 598.256C818.128 600.048 820.08 601.808 821.936 603.536C824.048 605.584 826.224 607.792 828.464 610.16C830.768 612.528 832.944 614.832 834.992 617.072C837.104 619.312 838.896 621.392 840.368 623.312L829.136 632.24C827.792 630.448 826.064 628.368 823.952 626C821.904 623.568 819.728 621.072 817.424 618.512C815.12 615.952 812.912 613.616 810.8 611.504ZM946.064 560.912C945.68 561.488 945.104 562.384 944.336 563.6C943.632 564.816 943.088 565.936 942.704 566.96C941.36 569.968 939.696 573.328 937.712 577.04C935.792 580.752 933.584 584.496 931.088 588.272C928.656 591.984 926.064 595.472 923.312 598.736C919.728 602.768 915.76 606.768 911.408 610.736C907.12 614.64 902.576 618.256 897.776 621.584C893.04 624.848 888.176 627.664 883.184 630.032L873.296 619.664C878.48 617.68 883.504 615.184 888.368 612.176C893.232 609.168 897.744 605.904 901.904 602.384C906.064 598.864 909.648 595.44 912.656 592.112C914.768 589.68 916.752 587.088 918.608 584.336C920.528 581.584 922.224 578.864 923.696 576.176C925.168 573.424 926.256 570.896 926.96 568.592C926.32 568.592 925.168 568.592 923.504 568.592C921.84 568.592 919.888 568.592 917.648 568.592C915.472 568.592 913.168 568.592 910.736 568.592C908.304 568.592 905.968 568.592 903.728 568.592C901.552 568.592 899.632 568.592 897.968 568.592C896.304 568.592 895.12 568.592 894.416 568.592C893.072 568.592 891.664 568.656 890.192 568.784C888.72 568.848 887.312 568.944 885.968 569.072C884.688 569.136 883.696 569.2 882.992 569.264V555.632C883.952 555.696 885.136 555.792 886.544 555.92C887.952 556.048 889.36 556.144 890.768 556.208C892.24 556.272 893.456 556.304 894.416 556.304C895.248 556.304 896.56 556.304 898.352 556.304C900.144 556.304 902.192 556.304 904.496 556.304C906.8 556.304 909.168 556.304 911.6 556.304C914.096 556.304 916.464 556.304 918.704 556.304C921.008 556.304 922.992 556.304 924.656 556.304C926.32 556.304 927.536 556.304 928.304 556.304C930.416 556.304 932.336 556.176 934.064 555.92C935.856 555.664 937.232 555.376 938.192 555.056L946.064 560.912ZM924.56 590.768C927.056 592.752 929.712 595.056 932.528 597.68C935.344 600.304 938.128 603.024 940.88 605.84C943.632 608.656 946.16 611.376 948.464 614C950.832 616.56 952.816 618.8 954.416 620.72L943.472 630.224C941.104 626.96 938.384 623.568 935.312 620.048C932.304 616.528 929.104 613.04 925.712 609.584C922.384 606.064 918.992 602.736 915.536 599.6L924.56 590.768ZM1048.3 566.288C1047.79 567.184 1047.25 568.272 1046.67 569.552C1046.1 570.768 1045.58 571.984 1045.14 573.2C1044.3 576.016 1043.12 579.248 1041.58 582.896C1040.11 586.48 1038.26 590.224 1036.02 594.128C1033.84 597.968 1031.31 601.68 1028.43 605.264C1023.82 610.768 1018.45 615.76 1012.3 620.24C1006.22 624.72 998.672 628.752 989.648 632.336L978.32 622.16C984.848 620.24 990.48 618.032 995.216 615.536C999.952 613.04 1004.08 610.384 1007.6 607.568C1011.12 604.688 1014.26 601.648 1017.01 598.448C1019.25 595.952 1021.3 593.136 1023.15 590C1025.01 586.8 1026.61 583.632 1027.95 580.496C1029.3 577.36 1030.19 574.608 1030.64 572.24H998.288L1002.7 561.392C1003.6 561.392 1004.98 561.392 1006.83 561.392C1008.75 561.392 1010.9 561.392 1013.26 561.392C1015.7 561.392 1018.06 561.392 1020.37 561.392C1022.74 561.392 1024.78 561.392 1026.51 561.392C1028.3 561.392 1029.52 561.392 1030.16 561.392C1031.63 561.392 1033.1 561.296 1034.58 561.104C1036.11 560.912 1037.42 560.624 1038.51 560.24L1048.3 566.288ZM1017.01 551.12C1015.86 552.784 1014.74 554.576 1013.65 556.496C1012.56 558.416 1011.73 559.888 1011.15 560.912C1008.98 564.752 1006.29 568.752 1003.09 572.912C999.952 577.008 996.368 581.008 992.336 584.912C988.304 588.752 984.016 592.272 979.472 595.472L968.624 587.504C972.848 584.88 976.56 582.192 979.76 579.44C983.024 576.688 985.84 573.968 988.208 571.28C990.576 568.528 992.592 565.904 994.256 563.408C995.984 560.848 997.456 558.576 998.672 556.592C999.44 555.376 1000.24 553.808 1001.07 551.888C1001.9 549.904 1002.54 548.112 1002.99 546.512L1017.01 551.12ZM1114.74 560.24C1114.1 565.104 1113.26 570.288 1112.24 575.792C1111.22 581.296 1109.84 586.864 1108.11 592.496C1106.26 598.96 1104.08 604.528 1101.58 609.2C1099.09 613.872 1096.34 617.488 1093.33 620.048C1090.38 622.544 1087.15 623.792 1083.63 623.792C1080.11 623.792 1076.85 622.608 1073.84 620.24C1070.9 617.808 1068.53 614.48 1066.74 610.256C1065.01 606.032 1064.14 601.232 1064.14 595.856C1064.14 590.288 1065.26 585.04 1067.5 580.112C1069.74 575.184 1072.85 570.832 1076.82 567.056C1080.85 563.216 1085.52 560.208 1090.83 558.032C1096.21 555.856 1102 554.768 1108.21 554.768C1114.16 554.768 1119.5 555.728 1124.24 557.648C1129.04 559.568 1133.14 562.224 1136.53 565.616C1139.92 569.008 1142.51 572.976 1144.3 577.52C1146.1 582.064 1146.99 586.96 1146.99 592.208C1146.99 598.928 1145.62 604.944 1142.86 610.256C1140.11 615.568 1136.02 619.952 1130.58 623.408C1125.2 626.864 1118.48 629.232 1110.42 630.512L1103.22 619.088C1105.07 618.896 1106.7 618.672 1108.11 618.416C1109.52 618.16 1110.86 617.872 1112.14 617.552C1115.22 616.784 1118.06 615.696 1120.69 614.288C1123.38 612.816 1125.71 611.024 1127.7 608.912C1129.68 606.736 1131.22 604.208 1132.3 601.328C1133.46 598.448 1134.03 595.28 1134.03 591.824C1134.03 588.048 1133.46 584.592 1132.3 581.456C1131.15 578.32 1129.46 575.6 1127.22 573.296C1124.98 570.928 1122.26 569.136 1119.06 567.92C1115.86 566.64 1112.18 566 1108.02 566C1102.9 566 1098.38 566.928 1094.48 568.784C1090.58 570.576 1087.28 572.912 1084.59 575.792C1081.9 578.672 1079.86 581.776 1078.45 585.104C1077.1 588.432 1076.43 591.6 1076.43 594.608C1076.43 597.808 1076.82 600.496 1077.58 602.672C1078.35 604.784 1079.28 606.384 1080.37 607.472C1081.52 608.496 1082.74 609.008 1084.02 609.008C1085.36 609.008 1086.67 608.336 1087.95 606.992C1089.3 605.584 1090.61 603.472 1091.89 600.656C1093.17 597.84 1094.45 594.288 1095.73 590C1097.2 585.392 1098.45 580.464 1099.47 575.216C1100.5 569.968 1101.23 564.848 1101.68 559.856L1114.74 560.24ZM1199.31 595.856H1243.57V634.256H1232.14V606.128H1210.26V634.64H1199.31V595.856ZM1236.85 545.456L1244.91 554.96C1240.56 556.24 1235.79 557.36 1230.61 558.32C1225.42 559.28 1220.11 560.08 1214.67 560.72C1209.3 561.296 1204.08 561.776 1199.02 562.16C1198.83 560.752 1198.42 559.12 1197.78 557.264C1197.14 555.344 1196.5 553.744 1195.86 552.464C1199.5 552.144 1203.18 551.76 1206.9 551.312C1210.67 550.864 1214.35 550.352 1217.94 549.776C1221.58 549.136 1225.01 548.464 1228.21 547.76C1231.41 546.992 1234.29 546.224 1236.85 545.456ZM1214.96 554.48H1226.86V601.04H1214.96V554.48ZM1194.32 572.24H1247.6V583.184H1194.32V572.24ZM1206.7 619.664H1237.62V629.936H1206.7V619.664ZM1161.49 574.544H1190.48V583.28H1161.49V574.544ZM1162.06 547.472H1190.48V556.112H1162.06V547.472ZM1161.49 587.984H1190.48V596.72H1161.49V587.984ZM1156.88 560.72H1193.55V569.84H1156.88V560.72ZM1167.25 601.616H1190.96V630.8H1167.25V621.68H1181.07V610.736H1167.25V601.616ZM1161.2 601.616H1170.9V634.544H1161.2V601.616Z" fill="#D9EAEC"/>
<path d="M448 194H200C177.909 194 160 211.909 160 234V383C160 405.091 177.909 423 200 423H448C470.091 423 488 405.091 488 383V234C488 211.909 470.091 194 448 194Z" fill="#BCD537"/>
<path d="M546 238H100C83.9837 238 71 250.984 71 267C71 283.016 83.9838 296 100 296H546C562.016 296 575 283.016 575 267C575 250.984 562.016 238 546 238Z" fill="#BCD537"/>
<path d="M236.5 138C253.345 138 267 123.897 267 106.5C267 89.103 253.345 75 236.5 75C219.655 75 206 89.103 206 106.5C206 123.897 219.655 138 236.5 138Z" fill="#D9EAEC"/>
<path d="M236.5 125C246.165 125 254 116.941 254 107C254 97.0589 246.165 89 236.5 89C226.835 89 219 97.0589 219 107C219 116.941 226.835 125 236.5 125Z" fill="#BCD537"/>
<path d="M416.5 138C433.345 138 447 123.897 447 106.5C447 89.103 433.345 75 416.5 75C399.655 75 386 89.103 386 106.5C386 123.897 399.655 138 416.5 138Z" fill="#D9EAEC"/>
<path d="M416.5 125C426.165 125 434 116.941 434 107C434 97.0589 426.165 89 416.5 89C406.835 89 399 97.0589 399 107C399 116.941 406.835 125 416.5 125Z" fill="#BCD537"/>
<path d="M546 323H100C83.9837 323 71 335.984 71 352C71 368.016 83.9838 381 100 381H546C562.016 381 575 368.016 575 352C575 335.984 562.016 323 546 323Z" fill="#BCD537"/>
</g>
<defs>
<clipPath id="clip0_8_24">
<rect width="1280" height="670" rx="40" fill="white"/>
</clipPath>
</defs>
</svg>
