<svg width="1500" height="500" viewBox="0 0 1500 500" fill="none" xmlns="http://www.w3.org/2000/svg">
<rect x="5" y="5" width="1490" height="490" rx="45" fill="#A2A2AD"/>
<rect x="5" y="5" width="1490" height="490" rx="45" stroke="#DCD5C8" stroke-width="10"/>
<line x1="66.5" x2="66.5" y2="500" stroke="#DCD5C8" stroke-width="9"/>
<line x1="488.5" x2="488.5" y2="500" stroke="#DCD5C8" stroke-width="9"/>
<line x1="97" y1="49" x2="97" y2="88" stroke="#DCD5C8" stroke-width="4"/>
<line x1="119" y1="49" x2="119" y2="88" stroke="#DCD5C8" stroke-width="4"/>
<line x1="145" y1="49" x2="145" y2="88" stroke="#DCD5C8" stroke-width="4"/>
<line x1="167" y1="49" x2="167" y2="88" stroke="#DCD5C8" stroke-width="4"/>
<line x1="194" y1="49" x2="194" y2="88" stroke="#DCD5C8" stroke-width="4"/>
<line x1="216" y1="49" x2="216" y2="88" stroke="#DCD5C8" stroke-width="4"/>
<line x1="97" y1="107" x2="97" y2="146" stroke="#DCD5C8" stroke-width="4"/>
<line x1="96.6791" y1="108.913" x2="118.679" y2="142.913" stroke="#DCD5C8" stroke-width="4"/>
<line x1="119" y1="107" x2="119" y2="146" stroke="#DCD5C8" stroke-width="4"/>
<line x1="145" y1="107" x2="145" y2="146" stroke="#DCD5C8" stroke-width="4"/>
<line x1="97" y1="169" x2="97" y2="208" stroke="#DCD5C8" stroke-width="4"/>
<line x1="95" y1="167" x2="120" y2="167" stroke="#DCD5C8" stroke-width="4"/>
<line x1="95" y1="206" x2="120" y2="206" stroke="#DCD5C8" stroke-width="4"/>
<line x1="118" y1="208" x2="118" y2="169" stroke="#DCD5C8" stroke-width="4"/>
<line x1="144" y1="188" x2="144" y2="165" stroke="#DCD5C8" stroke-width="4"/>
<line x1="163" y1="208" x2="163" y2="165" stroke="#DCD5C8" stroke-width="4"/>
<line x1="247" y1="208" x2="247" y2="165" stroke="#DCD5C8" stroke-width="4"/>
<line x1="216" y1="167" x2="192" y2="167" stroke="#DCD5C8" stroke-width="4"/>
<line x1="214" y1="188" x2="214" y2="165" stroke="#DCD5C8" stroke-width="4"/>
<line x1="193" y1="207.999" x2="193.007" y2="183.999" stroke="#DCD5C8" stroke-width="4"/>
<line x1="216" y1="186" x2="192" y2="186" stroke="#DCD5C8" stroke-width="4"/>
<line x1="216" y1="206" x2="192" y2="206" stroke="#DCD5C8" stroke-width="4"/>
<line x1="142" y1="186" x2="165" y2="186" stroke="#DCD5C8" stroke-width="4"/>
<line x1="166.345" y1="108.48" x2="144.345" y2="128.48" stroke="#DCD5C8" stroke-width="4"/>
<line x1="166.734" y1="144.548" x2="144.734" y2="126.548" stroke="#DCD5C8" stroke-width="4"/>
<line x1="66" y1="68.5" x2="95" y2="68.5" stroke="#DCD5C8" stroke-width="7"/>
<line x1="66" y1="248.5" x2="95" y2="248.5" stroke="#DCD5C8" stroke-width="7"/>
<line x1="117" y1="248.5" x2="146" y2="248.5" stroke="#DCD5C8" stroke-width="7"/>
<line x1="165" y1="248.5" x2="194" y2="248.5" stroke="#DCD5C8" stroke-width="7"/>
<line x1="66" y1="127.5" x2="95" y2="127.5" stroke="#DCD5C8" stroke-width="7"/>
<line x1="66" y1="188.5" x2="95" y2="188.5" stroke="#DCD5C8" stroke-width="7"/>
<line x1="120" y1="127.5" x2="149" y2="127.5" stroke="#DCD5C8" stroke-width="7"/>
<line x1="216" y1="188.5" x2="245" y2="188.5" stroke="#DCD5C8" stroke-width="7"/>
<line x1="165" y1="188.5" x2="194" y2="188.5" stroke="#DCD5C8" stroke-width="7"/>
<line x1="117" y1="188.5" x2="146" y2="188.5" stroke="#DCD5C8" stroke-width="7"/>
<line x1="168" y1="68.5" x2="194" y2="68.5" stroke="#DCD5C8" stroke-width="7"/>
<line x1="165" y1="127.5" x2="398" y2="127.5" stroke="#DCD5C8" stroke-width="7"/>
<line x1="249" y1="188.5" x2="491" y2="188.5" stroke="#DCD5C8" stroke-width="7"/>
<line x1="216" y1="68.5" x2="398" y2="68.5" stroke="#DCD5C8" stroke-width="7"/>
<line x1="216" y1="248.5" x2="398" y2="248.5" stroke="#DCD5C8" stroke-width="7"/>
<line x1="447" y1="68.5" x2="491" y2="68.5" stroke="#DCD5C8" stroke-width="7"/>
<line x1="444" y1="248.5" x2="488" y2="248.5" stroke="#DCD5C8" stroke-width="7"/>
<line x1="447" y1="127.5" x2="491" y2="127.5" stroke="#DCD5C8" stroke-width="7"/>
<line x1="120" y1="68.5" x2="143" y2="68.5" stroke="#DCD5C8" stroke-width="7"/>
<circle cx="423" cy="127" r="25" fill="#DCD5C8"/>
<circle cx="423" cy="190" r="25" fill="#DCD5C8"/>
<circle cx="423" cy="250" r="25" fill="#DCD5C8"/>
<circle cx="423" cy="69" r="25" fill="#DCD5C8"/>
<line x1="97" y1="230" x2="97" y2="269" stroke="#DCD5C8" stroke-width="4"/>
<line x1="119" y1="230" x2="119" y2="269" stroke="#DCD5C8" stroke-width="4"/>
<line x1="118.719" y1="231.022" x2="96.7191" y2="268.022" stroke="#DCD5C8" stroke-width="4"/>
<line x1="194" y1="230" x2="194" y2="269" stroke="#DCD5C8" stroke-width="4"/>
<line x1="216" y1="230" x2="216" y2="269" stroke="#DCD5C8" stroke-width="4"/>
<line x1="215.719" y1="231.022" x2="193.719" y2="268.022" stroke="#DCD5C8" stroke-width="4"/>
<line x1="147" y1="230" x2="147" y2="269" stroke="#DCD5C8" stroke-width="4"/>
<line x1="167" y1="230" x2="167" y2="269" stroke="#DCD5C8" stroke-width="4"/>
<line y1="-2" x2="42.0595" y2="-2" transform="matrix(-0.475517 0.879707 -0.83689 -0.547371 165 230)" stroke="#DCD5C8" stroke-width="4"/>
<rect x="929" y="80" width="143" height="221" rx="20" fill="#DCD5C8"/>
<rect x="1075" y="105" width="54" height="193" rx="10" fill="#DCD5C8"/>
<rect x="872" y="105" width="54" height="193" rx="10" fill="#DCD5C8"/>
<rect x="1192" y="105" width="54" height="193" rx="10" fill="#DCD5C8"/>
<rect x="1133" y="105" width="54" height="193" rx="10" fill="#DCD5C8"/>
<line x1="928.5" y1="154" x2="928.5" y2="277" stroke="#A2A2AD" stroke-width="5"/>
<line x1="1189.5" y1="154" x2="1189.5" y2="277" stroke="#A2A2AD" stroke-width="5"/>
<line x1="1131.5" y1="154" x2="1131.5" y2="277" stroke="#A2A2AD" stroke-width="5"/>
<line x1="1074.5" y1="154" x2="1074.5" y2="277" stroke="#A2A2AD" stroke-width="5"/>
<circle cx="955" cy="168" r="14" fill="#A2A2AD"/>
<circle cx="1044" cy="168" r="14" fill="#A2A2AD"/>
<circle cx="1001" cy="168" r="14" fill="#A2A2AD"/>
<circle cx="956" cy="216" r="14" fill="#A2A2AD"/>
<circle cx="1045" cy="216" r="14" fill="#A2A2AD"/>
<circle cx="1002" cy="216" r="14" fill="#A2A2AD"/>
<line x1="484.009" y1="272.5" x2="968.009" y2="273.5" stroke="#DCD5C8" stroke-width="9"/>
<rect x="936" y="96" width="129" height="44" rx="10" fill="#1F1E63"/>
<rect x="955" y="100" width="91" height="36" rx="5" fill="#A2A2AD"/>
<rect x="846" y="301" width="628" height="32" rx="16" fill="#1F1E63"/>
</svg>
