<svg width="1280" height="670" viewBox="0 0 1280 670" fill="none" xmlns="http://www.w3.org/2000/svg">
<rect width="1280" height="670" fill="#DFE2EA"/>
<rect x="803" y="404" width="200" height="200" fill="#CAE5D3"/>
<rect x="1122.26" y="404" width="150" height="150" transform="rotate(8.92029 1122.26 404)" fill="#CAE5D3"/>
<path d="M188.952 586.12H202.2V593.32C205.784 587.816 210.84 585.064 217.368 585.064C223.192 585.064 227.608 586.792 230.616 590.248C233.176 593.32 234.456 597.48 234.456 602.728V637H221.304V605.416C221.304 599.336 218.456 596.296 212.76 596.296C209.56 596.296 207 597.224 205.08 599.08C203.16 600.872 202.2 603.272 202.2 606.28V637H188.952V586.12ZM269.072 585.064C277.456 585.064 283.888 587.752 288.368 593.128C292.272 597.736 294.224 603.88 294.224 611.56C294.224 620.392 291.696 627.176 286.64 631.912C282.224 636.008 276.368 638.056 269.072 638.056C260.688 638.056 254.256 635.4 249.776 630.088C245.872 625.416 243.92 619.24 243.92 611.56C243.92 602.792 246.448 596.04 251.504 591.304C255.92 587.144 261.776 585.064 269.072 585.064ZM269.072 595.72C265.488 595.72 262.608 597.192 260.432 600.136C258.256 603.016 257.168 606.824 257.168 611.56C257.168 616.68 258.384 620.712 260.816 623.656C262.992 626.152 265.744 627.4 269.072 627.4C272.656 627.4 275.536 625.96 277.712 623.08C279.952 620.136 281.072 616.296 281.072 611.56C281.072 606.504 279.824 602.504 277.328 599.56C275.152 597 272.4 595.72 269.072 595.72ZM318.959 634.984V618.664H302.447V609.928H318.959V593.32H327.599V609.928H344.111V618.664H327.599V634.984H318.959ZM398.771 615.016H364.595C364.787 619.112 365.427 622.024 366.515 623.752C368.371 626.568 371.283 627.976 375.251 627.976C380.179 627.976 383.475 625.928 385.139 621.832H398.195C396.723 626.824 393.843 630.792 389.555 633.736C385.331 636.616 380.371 638.056 374.675 638.056C366.931 638.056 360.979 635.464 356.819 630.28C353.171 625.736 351.347 619.752 351.347 612.328C351.347 603.304 353.715 596.328 358.451 591.4C362.611 587.176 368.083 585.064 374.867 585.064C380.051 585.064 384.595 586.344 388.499 588.904C392.403 591.464 395.187 595.048 396.851 599.656C398.195 603.24 398.867 607.56 398.867 612.616C398.867 613.256 398.835 614.056 398.771 615.016ZM385.043 606.28C384.403 598.856 380.979 595.144 374.771 595.144C368.947 595.144 365.619 598.856 364.787 606.28H385.043ZM439.724 578.056C442.476 578.312 445.228 578.536 447.98 578.728C450.796 578.856 453.644 578.92 456.524 578.92C462.412 578.92 468.268 578.664 474.092 578.152C479.916 577.64 485.292 576.84 490.22 575.752V587.752C485.228 588.456 479.82 589.032 473.996 589.48C468.172 589.864 462.348 590.056 456.524 590.056C453.708 590.056 450.892 590.024 448.076 589.96C445.324 589.832 442.54 589.672 439.724 589.48V578.056ZM476.204 561.832C476.076 562.728 475.948 563.72 475.82 564.808C475.756 565.896 475.692 566.984 475.628 568.072C475.564 569.096 475.5 570.472 475.436 572.2C475.372 573.928 475.34 575.88 475.34 578.056C475.34 580.168 475.34 582.408 475.34 584.776C475.34 589.128 475.404 593.224 475.532 597.064C475.66 600.84 475.82 604.36 476.012 607.624C476.204 610.824 476.364 613.768 476.492 616.456C476.684 619.144 476.78 621.64 476.78 623.944C476.78 626.44 476.428 628.744 475.724 630.856C475.084 632.968 474.028 634.824 472.556 636.424C471.084 638.024 469.132 639.24 466.7 640.072C464.332 640.968 461.42 641.416 457.964 641.416C451.308 641.416 446.06 640.072 442.22 637.384C438.38 634.696 436.46 630.824 436.46 625.768C436.46 622.504 437.324 619.656 439.052 617.224C440.78 614.728 443.244 612.808 446.444 611.464C449.644 610.056 453.42 609.352 457.772 609.352C462.316 609.352 466.444 609.832 470.156 610.792C473.868 611.752 477.26 613.032 480.332 614.632C483.404 616.232 486.124 617.992 488.492 619.912C490.924 621.768 493.1 623.56 495.02 625.288L488.396 635.368C484.748 631.912 481.196 628.936 477.74 626.44C474.284 623.944 470.828 622.024 467.372 620.68C463.98 619.336 460.46 618.664 456.812 618.664C454.124 618.664 451.916 619.176 450.188 620.2C448.524 621.224 447.692 622.664 447.692 624.52C447.692 626.44 448.556 627.848 450.284 628.744C452.012 629.64 454.124 630.088 456.62 630.088C458.604 630.088 460.172 629.768 461.324 629.128C462.476 628.424 463.276 627.432 463.724 626.152C464.236 624.808 464.492 623.208 464.492 621.352C464.492 619.688 464.428 617.512 464.3 614.824C464.172 612.136 464.012 609.128 463.82 605.8C463.692 602.472 463.564 599.016 463.436 595.432C463.308 591.784 463.244 588.232 463.244 584.776C463.244 581.128 463.212 577.832 463.148 574.888C463.148 571.88 463.148 569.64 463.148 568.168C463.148 567.464 463.084 566.472 462.956 565.192C462.828 563.912 462.668 562.792 462.476 561.832H476.204ZM429.356 562.888C429.164 563.528 428.876 564.424 428.492 565.576C428.172 566.728 427.884 567.848 427.628 568.936C427.436 570.024 427.276 570.856 427.148 571.432C426.828 572.776 426.476 574.6 426.092 576.904C425.708 579.144 425.292 581.704 424.844 584.584C424.46 587.4 424.076 590.312 423.692 593.32C423.308 596.264 423.02 599.08 422.828 601.768C422.636 604.392 422.54 606.664 422.54 608.584C422.54 609.544 422.54 610.6 422.54 611.752C422.604 612.84 422.732 613.864 422.924 614.824C423.372 613.672 423.82 612.552 424.268 611.464C424.78 610.376 425.292 609.288 425.804 608.2C426.316 607.112 426.796 606.024 427.244 604.936L433.1 609.736C432.204 612.36 431.276 615.112 430.316 617.992C429.42 620.872 428.588 623.592 427.82 626.152C427.116 628.712 426.572 630.856 426.188 632.584C426.06 633.224 425.932 633.992 425.804 634.888C425.74 635.784 425.708 636.52 425.708 637.096C425.708 637.608 425.708 638.216 425.708 638.92C425.772 639.688 425.836 640.392 425.9 641.032L415.052 641.896C414.028 638.504 413.132 634.184 412.364 628.936C411.596 623.624 411.212 617.704 411.212 611.176C411.212 607.592 411.372 603.848 411.692 599.944C412.012 595.976 412.364 592.168 412.748 588.52C413.196 584.872 413.644 581.544 414.092 578.536C414.54 575.464 414.892 573 415.148 571.144C415.34 569.8 415.532 568.296 415.724 566.632C415.916 564.904 416.044 563.272 416.108 561.736L429.356 562.888ZM557.132 569.128C558.028 570.472 559.02 572.072 560.108 573.928C561.26 575.72 562.38 577.576 563.468 579.496C564.556 581.352 565.452 583.048 566.156 584.584L557.612 588.328C556.652 586.28 555.692 584.392 554.732 582.664C553.836 580.872 552.908 579.176 551.948 577.576C551.052 575.912 549.996 574.28 548.78 572.68L557.132 569.128ZM569.996 563.848C570.956 565.128 572.012 566.696 573.164 568.552C574.316 570.344 575.436 572.168 576.524 574.024C577.676 575.816 578.604 577.448 579.308 578.92L570.956 582.952C569.996 580.904 569.004 579.048 567.98 577.384C567.02 575.656 566.028 573.992 565.004 572.392C564.044 570.792 562.956 569.224 561.74 567.688L569.996 563.848ZM532.364 561.448C532.044 563.496 531.788 565.672 531.596 567.976C531.404 570.216 531.244 572.296 531.116 574.216C530.988 576.776 530.86 579.944 530.732 583.72C530.604 587.432 530.476 591.368 530.348 595.528C530.22 599.624 530.092 603.656 529.964 607.624C529.9 611.528 529.868 614.984 529.868 617.992C529.868 621.192 530.444 623.752 531.596 625.672C532.812 627.528 534.412 628.872 536.396 629.704C538.444 630.472 540.716 630.856 543.212 630.856C547.116 630.856 550.7 630.344 553.964 629.32C557.292 628.232 560.268 626.792 562.892 625C565.58 623.144 568.012 621.032 570.188 618.664C572.364 616.296 574.316 613.8 576.044 611.176L584.78 621.832C583.18 624.136 581.132 626.568 578.636 629.128C576.14 631.688 573.164 634.088 569.708 636.328C566.316 638.568 562.38 640.36 557.9 641.704C553.42 643.112 548.46 643.816 543.02 643.816C537.836 643.816 533.292 643.016 529.388 641.416C525.484 639.816 522.476 637.32 520.364 633.928C518.252 630.472 517.196 626.024 517.196 620.584C517.196 617.96 517.228 614.984 517.292 611.656C517.356 608.264 517.42 604.744 517.484 601.096C517.612 597.448 517.708 593.896 517.772 590.44C517.836 586.92 517.9 583.752 517.964 580.936C518.028 578.056 518.06 575.816 518.06 574.216C518.06 571.912 517.964 569.672 517.772 567.496C517.58 565.256 517.292 563.176 516.908 561.256L532.364 561.448ZM661.292 561.736C661.1 562.568 660.844 563.592 660.524 564.808C660.268 566.024 660.012 567.24 659.756 568.456C659.5 569.672 659.276 570.664 659.084 571.432C658.06 575.72 656.908 580.104 655.628 584.584C654.348 589 652.908 593.384 651.308 597.736C649.708 602.088 647.916 606.152 645.932 609.928C644.012 613.704 641.868 617.064 639.5 620.008C636.62 623.72 633.9 626.76 631.34 629.128C628.844 631.496 626.348 633.256 623.852 634.408C621.356 635.496 618.636 636.04 615.692 636.04C613.068 636.04 610.572 635.336 608.204 633.928C605.9 632.456 604.012 630.312 602.54 627.496C601.132 624.616 600.428 621.096 600.428 616.936C600.428 612.648 601.196 608.392 602.732 604.168C604.332 599.88 606.508 595.912 609.26 592.264C612.076 588.616 615.372 585.576 619.148 583.144C624.268 579.816 629.292 577.48 634.22 576.136C639.148 574.792 644.172 574.12 649.292 574.12C655.948 574.12 661.836 575.528 666.956 578.344C672.076 581.096 676.076 584.968 678.956 589.96C681.836 594.952 683.276 600.808 683.276 607.528C683.276 614.248 681.772 620.072 678.764 625C675.82 629.864 671.756 633.768 666.572 636.712C661.388 639.592 655.468 641.544 648.812 642.568L641.42 631.432C646.732 630.984 651.244 630.024 654.956 628.552C658.732 627.08 661.772 625.224 664.076 622.984C666.444 620.744 668.172 618.248 669.26 615.496C670.348 612.744 670.892 609.864 670.892 606.856C670.892 602.504 669.932 598.696 668.012 595.432C666.156 592.104 663.532 589.512 660.14 587.656C656.748 585.736 652.748 584.776 648.14 584.776C643.084 584.776 638.572 585.608 634.604 587.272C630.636 588.872 626.988 590.888 623.66 593.32C621.164 595.112 619.02 597.288 617.228 599.848C615.436 602.344 614.06 605 613.1 607.816C612.14 610.632 611.66 613.352 611.66 615.976C611.66 618.28 612.14 620.136 613.1 621.544C614.124 622.952 615.468 623.656 617.132 623.656C618.348 623.656 619.596 623.304 620.876 622.6C622.156 621.832 623.436 620.84 624.716 619.624C625.996 618.344 627.276 616.872 628.556 615.208C629.836 613.544 631.116 611.784 632.396 609.928C634.188 607.176 635.884 604.104 637.484 600.712C639.084 597.32 640.524 593.768 641.804 590.056C643.148 586.344 644.268 582.76 645.164 579.304C646.06 575.784 646.764 572.552 647.276 569.608C647.596 568.2 647.788 566.6 647.852 564.808C647.98 563.016 648.044 561.576 648.044 560.488L661.292 561.736ZM620.78 564.904C621.1 566.504 621.42 568.072 621.74 569.608C622.124 571.144 622.508 572.648 622.892 574.12C623.596 576.744 624.428 579.592 625.388 582.664C626.348 585.672 627.372 588.68 628.46 591.688C629.612 594.696 630.764 597.48 631.916 600.04C633.068 602.536 634.22 604.68 635.372 606.472C637.036 609.032 638.924 611.72 641.036 614.536C643.148 617.288 645.324 619.752 647.564 621.928L637.868 629.608C635.948 627.496 634.22 625.48 632.684 623.56C631.212 621.576 629.676 619.368 628.076 616.936C626.668 614.76 625.228 612.232 623.756 609.352C622.348 606.472 620.94 603.336 619.531 599.944C618.188 596.552 616.876 593.064 615.596 589.48C614.38 585.896 613.196 582.344 612.044 578.824C611.532 577.096 610.956 575.432 610.316 573.832C609.74 572.232 609.036 570.568 608.204 568.84L620.78 564.904ZM747.5 559.336C747.372 560.296 747.244 561.384 747.116 562.6C747.052 563.752 746.988 564.936 746.924 566.152C746.86 567.432 746.796 569.16 746.732 571.336C746.668 573.448 746.635 575.784 746.635 578.344C746.635 580.904 746.635 583.432 746.635 585.928C746.635 588.424 746.635 590.696 746.635 592.744C746.635 595.432 746.7 598.44 746.828 601.768C746.956 605.032 747.116 608.36 747.308 611.752C747.564 615.08 747.756 618.216 747.884 621.16C748.076 624.04 748.172 626.44 748.172 628.36C748.172 631.048 747.468 633.512 746.06 635.752C744.652 637.928 742.54 639.656 739.724 640.936C736.972 642.216 733.484 642.856 729.26 642.856C721.58 642.856 715.756 641.448 711.788 638.632C707.82 635.816 705.836 631.88 705.836 626.824C705.836 623.56 706.764 620.712 708.62 618.28C710.54 615.784 713.26 613.832 716.78 612.424C720.364 611.016 724.62 610.312 729.548 610.312C734.796 610.312 739.692 610.888 744.236 612.04C748.844 613.128 753.036 614.568 756.812 616.36C760.588 618.152 763.948 620.04 766.892 622.024C769.836 624.008 772.332 625.8 774.38 627.4L767.468 638.152C765.164 635.976 762.572 633.832 759.692 631.72C756.876 629.608 753.772 627.688 750.38 625.96C747.052 624.232 743.5 622.856 739.724 621.832C736.012 620.744 732.076 620.2 727.916 620.2C724.588 620.2 721.996 620.776 720.14 621.928C718.348 623.08 717.452 624.488 717.452 626.152C717.452 627.368 717.836 628.424 718.604 629.32C719.372 630.216 720.492 630.888 721.964 631.336C723.436 631.784 725.292 632.008 727.532 632.008C729.26 632.008 730.732 631.816 731.948 631.432C733.228 631.048 734.22 630.344 734.924 629.32C735.628 628.296 735.98 626.856 735.98 625C735.98 623.592 735.916 621.576 735.788 618.952C735.724 616.328 735.628 613.448 735.5 610.312C735.372 607.112 735.244 603.976 735.116 600.904C734.988 597.832 734.924 595.112 734.924 592.744C734.924 590.44 734.924 588.04 734.924 585.544C734.988 582.984 735.02 580.456 735.02 577.96C735.02 575.464 735.02 573.192 735.02 571.144C735.084 569.032 735.116 567.304 735.116 565.96C735.116 565.064 735.052 563.976 734.924 562.696C734.86 561.352 734.732 560.232 734.54 559.336H747.5ZM707.66 568.36C709.388 568.616 711.308 568.872 713.42 569.128C715.532 569.384 717.676 569.64 719.852 569.896C722.092 570.088 724.204 570.248 726.188 570.376C728.172 570.44 729.9 570.472 731.372 570.472C737.9 570.472 744.396 570.28 750.86 569.896C757.388 569.448 764.14 568.648 771.116 567.496L771.02 578.536C767.756 578.984 763.98 579.4 759.692 579.784C755.404 580.168 750.828 580.488 745.964 580.744C741.164 580.936 736.332 581.032 731.468 581.032C729.484 581.032 727.02 580.968 724.076 580.84C721.196 580.648 718.316 580.424 715.436 580.168C712.556 579.848 710.06 579.56 707.948 579.304L707.66 568.36ZM707.18 589.096C708.716 589.352 710.54 589.608 712.652 589.864C714.764 590.12 716.908 590.312 719.084 590.44C721.324 590.568 723.436 590.696 725.42 590.824C727.404 590.888 729.036 590.92 730.316 590.92C736.268 590.92 741.644 590.792 746.444 590.536C751.308 590.28 755.852 589.96 760.076 589.576C764.3 589.192 768.364 588.744 772.268 588.232L772.172 599.56C768.844 599.944 765.612 600.264 762.476 600.52C759.404 600.776 756.236 601 752.972 601.192C749.772 601.384 746.316 601.512 742.604 601.576C738.892 601.64 734.732 601.672 730.124 601.672C728.268 601.672 725.964 601.64 723.212 601.576C720.46 601.448 717.644 601.288 714.764 601.096C711.948 600.904 709.452 600.68 707.276 600.424L707.18 589.096ZM821.804 560.872C821.548 562.856 821.292 565 821.036 567.304C820.844 569.608 820.684 571.72 820.556 573.64C820.492 576.264 820.364 579.464 820.172 583.24C820.044 586.952 819.916 590.856 819.788 594.952C819.724 599.048 819.628 603.08 819.5 607.048C819.436 611.016 819.404 614.472 819.404 617.416C819.404 620.616 819.98 623.176 821.132 625.096C822.348 626.952 823.948 628.296 825.932 629.128C827.916 629.896 830.156 630.28 832.652 630.28C836.62 630.28 840.236 629.768 843.5 628.744C846.764 627.656 849.74 626.216 852.428 624.424C855.116 622.632 857.516 620.552 859.628 618.184C861.804 615.816 863.756 613.32 865.484 610.696L874.22 621.256C872.684 623.56 870.668 625.992 868.172 628.552C865.676 631.112 862.7 633.512 859.244 635.752C855.852 637.992 851.916 639.816 847.436 641.224C842.956 642.632 837.996 643.336 832.556 643.336C827.308 643.336 822.732 642.504 818.828 640.84C814.988 639.24 811.98 636.744 809.804 633.352C807.692 629.896 806.636 625.448 806.636 620.008C806.636 617.384 806.668 614.408 806.732 611.08C806.796 607.688 806.892 604.168 807.02 600.52C807.148 596.872 807.244 593.32 807.308 589.864C807.372 586.344 807.436 583.176 807.5 580.36C807.564 577.544 807.596 575.304 807.596 573.64C807.596 571.336 807.5 569.096 807.308 566.92C807.116 564.68 806.796 562.6 806.348 560.68L821.804 560.872ZM927.692 560.392C927.308 561.672 926.924 563.24 926.54 565.096C926.156 566.952 925.868 568.392 925.676 569.416C925.228 571.592 924.652 574.248 923.948 577.384C923.308 580.52 922.572 583.848 921.74 587.368C920.972 590.888 920.172 594.248 919.34 597.448C918.508 600.84 917.484 604.52 916.268 608.488C915.052 612.392 913.74 616.392 912.332 620.488C910.988 624.52 909.612 628.392 908.204 632.104C906.796 635.752 905.42 639.016 904.076 641.896L890.732 637.384C892.14 634.952 893.644 632.008 895.244 628.552C896.844 625.032 898.38 621.256 899.852 617.224C901.388 613.192 902.796 609.192 904.076 605.224C905.356 601.256 906.444 597.576 907.34 594.184C907.98 591.944 908.588 589.64 909.164 587.272C909.74 584.904 910.252 582.6 910.7 580.36C911.148 578.12 911.532 576.04 911.852 574.12C912.236 572.136 912.524 570.408 912.716 568.936C912.908 567.144 913.036 565.352 913.1 563.56C913.164 561.768 913.132 560.328 913.004 559.24L927.692 560.392ZM903.212 574.696C907.116 574.696 911.18 574.504 915.404 574.12C919.628 573.736 923.884 573.192 928.172 572.488C932.46 571.784 936.716 570.952 940.94 569.992V581.992C936.972 582.888 932.748 583.656 928.268 584.296C923.788 584.936 919.372 585.448 915.02 585.832C910.668 586.152 906.668 586.312 903.02 586.312C900.716 586.312 898.636 586.28 896.78 586.216C894.924 586.088 893.132 585.992 891.404 585.928L891.116 573.928C893.612 574.184 895.756 574.376 897.548 574.504C899.34 574.632 901.228 574.696 903.212 574.696ZM933.356 589.384C936.044 589.128 939.02 588.904 942.284 588.712C945.548 588.52 948.716 588.424 951.788 588.424C954.54 588.424 957.324 588.488 960.14 588.616C963.02 588.744 965.868 588.968 968.684 589.288L968.396 600.808C966.028 600.488 963.404 600.232 960.524 600.04C957.708 599.784 954.828 599.656 951.884 599.656C948.62 599.656 945.452 599.752 942.38 599.944C939.372 600.072 936.364 600.328 933.356 600.712V589.384ZM938.54 613.576C938.156 614.92 937.836 616.328 937.58 617.8C937.324 619.208 937.196 620.456 937.196 621.544C937.196 622.568 937.42 623.528 937.868 624.424C938.316 625.32 939.02 626.12 939.98 626.824C940.94 627.464 942.252 627.976 943.916 628.36C945.644 628.744 947.788 628.936 950.348 628.936C953.612 628.936 956.876 628.776 960.14 628.456C963.468 628.072 966.86 627.56 970.316 626.92L969.836 639.208C967.148 639.528 964.172 639.816 960.908 640.072C957.644 640.392 954.092 640.552 950.252 640.552C942.188 640.552 936.012 639.24 931.724 636.616C927.5 633.928 925.388 630.152 925.388 625.288C925.388 623.112 925.58 620.904 925.964 618.664C926.348 616.424 926.732 614.344 927.116 612.424L938.54 613.576ZM996.716 613.192C999.66 613.192 1002.28 613.896 1004.59 615.304C1006.89 616.712 1008.75 618.6 1010.16 620.968C1011.56 623.272 1012.27 625.864 1012.27 628.744C1012.27 631.56 1011.56 634.152 1010.16 636.52C1008.75 638.888 1006.89 640.776 1004.59 642.184C1002.28 643.592 999.66 644.296 996.716 644.296C993.9 644.296 991.308 643.592 988.94 642.184C986.572 640.776 984.684 638.888 983.276 636.52C981.932 634.152 981.26 631.56 981.26 628.744C981.26 625.864 981.932 623.272 983.276 620.968C984.684 618.6 986.572 616.712 988.94 615.304C991.308 613.896 993.9 613.192 996.716 613.192ZM996.812 637.384C999.18 637.384 1001.2 636.552 1002.86 634.888C1004.52 633.16 1005.36 631.112 1005.36 628.744C1005.36 627.144 1004.97 625.704 1004.2 624.424C1003.44 623.08 1002.38 622.024 1001.04 621.256C999.756 620.488 998.348 620.104 996.812 620.104C995.212 620.104 993.772 620.488 992.492 621.256C991.212 622.024 990.156 623.08 989.324 624.424C988.556 625.704 988.172 627.144 988.172 628.744C988.172 630.344 988.556 631.816 989.324 633.16C990.156 634.44 991.212 635.464 992.492 636.232C993.772 637 995.212 637.384 996.812 637.384ZM1109.9 572.392L1085.8 637H1075.05L1099.15 572.392H1109.9ZM1134.33 586.12H1147.58V593.32C1151.16 587.816 1156.22 585.064 1162.74 585.064C1168.57 585.064 1172.98 586.792 1175.99 590.248C1178.55 593.32 1179.83 597.48 1179.83 602.728V637H1166.68V605.416C1166.68 599.336 1163.83 596.296 1158.14 596.296C1154.94 596.296 1152.38 597.224 1150.46 599.08C1148.54 600.872 1147.58 603.272 1147.58 606.28V637H1134.33V586.12ZM1205.23 605.896L1221.84 586.12H1236.91L1219.54 605.32L1238.06 637H1222.61L1210.42 614.536L1205.23 620.296V637H1191.98V568.264H1205.23V605.896Z" fill="#9CC9E5"/>
<path d="M978.389 187.7L1142.23 243.886L1011.65 357.681L978.389 187.7Z" fill="#CAE5D3"/>
<circle cx="839" cy="153" r="100" fill="#CAE5D3"/>
</svg>
